<svg width="20" height="20" viewBox="0 0 20 20" fill="none" xmlns="http://www.w3.org/2000/svg">
<path d="M10.0001 0.0416336C4.47724 0.0416336 0 4.51887 0 10.0417C0 14.995 3.60522 19.0972 8.33225 19.8916V12.128H5.91994V9.33418H8.33225V7.27414C8.33225 4.8839 9.79213 3.58136 11.9247 3.58136C12.9461 3.58136 13.8238 3.65747 14.0786 3.69099V6.18942L12.5995 6.19014C11.44 6.19014 11.2165 6.74103 11.2165 7.5497V9.33275H13.9832L13.6223 12.1265H11.2165V19.9584C16.1642 19.3562 20 15.1495 20 10.0388C20 4.51887 15.5228 0.0416336 10.0001 0.0416336Z" fill="#303538"/>
</svg>
