<svg width="20" height="20" viewBox="0 0 20 20" fill="none" xmlns="http://www.w3.org/2000/svg">
<path d="M18.1502 4.22781C18.1499 4.22137 18.1492 4.21492 18.1481 4.20851C18.1231 4.1728 18.0924 4.14207 18.0666 4.10708C17.8799 3.85271 17.6822 3.60788 17.4736 3.37256C17.4165 3.30826 17.3593 3.24466 17.3007 3.18178C17.0859 2.95174 16.8606 2.73237 16.6248 2.52375C16.5812 2.48516 16.5405 2.44517 16.4969 2.40729C15.9158 1.90947 15.2796 1.47986 14.6007 1.12694C14.5735 1.11266 14.5449 1.10052 14.517 1.08621C14.2147 0.932563 13.9047 0.794451 13.5882 0.6725C13.5167 0.646795 13.4517 0.622471 13.3839 0.601037C13.1024 0.499599 12.8165 0.410762 12.5265 0.334526C12.4407 0.311668 12.355 0.288099 12.2678 0.268087C11.982 0.201648 11.6963 0.150908 11.404 0.109462C11.3154 0.0966096 11.2282 0.0794451 11.1389 0.0687278C10.3862 -0.0227465 9.62525 -0.0227465 8.87252 0.0687278C8.78323 0.0794451 8.69606 0.0966096 8.60744 0.109462C8.31522 0.150908 8.02656 0.201648 7.7436 0.268087C7.65644 0.288099 7.5707 0.311668 7.48496 0.334526C7.19295 0.41072 6.90719 0.499557 6.62757 0.601037C6.55611 0.625318 6.49109 0.649642 6.42323 0.6725C6.10678 0.794451 5.79673 0.932521 5.49438 1.08621C5.4665 1.10048 5.43795 1.11262 5.41078 1.12694C4.7296 1.47948 4.0912 1.90906 3.50807 2.40729C3.46449 2.44513 3.42375 2.48516 3.38017 2.52375C3.142 2.73333 2.91669 2.9527 2.70427 3.18178C2.6457 3.24466 2.58851 3.30826 2.53137 3.37256C2.32225 3.60738 2.12457 3.8522 1.93835 4.10703C1.91265 4.14203 1.88192 4.17276 1.85689 4.20847C1.85362 4.21471 1.85073 4.22116 1.8483 4.22777C-0.616101 7.68148 -0.616101 12.3188 1.8483 15.7725C1.85073 15.7791 1.85358 15.7856 1.85689 15.7918C1.88188 15.8275 1.91261 15.8582 1.93835 15.8932C2.12461 16.1476 2.32225 16.3924 2.53137 16.6277C2.58851 16.692 2.6457 16.7556 2.70427 16.8185C2.91958 17.0486 3.14485 17.2679 3.38017 17.4766C3.42375 17.5152 3.46449 17.5551 3.50807 17.593C4.08915 18.0908 4.72541 18.5204 5.40433 18.8734C5.4315 18.8876 5.46005 18.8998 5.48793 18.9141C5.79028 19.0677 6.10029 19.2059 6.41678 19.3278C6.48825 19.3535 6.55326 19.3778 6.62113 19.3993C6.90262 19.5007 7.18843 19.5895 7.47851 19.6658C7.56425 19.6886 7.64999 19.7122 7.73715 19.7322C8.02296 19.7987 8.30873 19.8494 8.60099 19.8908C8.68957 19.9037 8.77674 19.9209 8.86608 19.9316C9.61876 20.0231 10.3797 20.0231 11.1325 19.9316C11.2218 19.9209 11.3089 19.9037 11.3975 19.8908C11.6898 19.8494 11.9784 19.7987 12.2614 19.7322C12.3485 19.7122 12.4343 19.6886 12.52 19.6658C12.8125 19.5896 13.0983 19.5007 13.3774 19.3993C13.4489 19.375 13.5139 19.3507 13.5818 19.3278C13.8982 19.2059 14.2083 19.0678 14.5106 18.9141C14.5385 18.8998 14.567 18.8877 14.5942 18.8734C15.2731 18.5204 15.9094 18.0908 16.4905 17.593C16.534 17.5551 16.5748 17.5152 16.6184 17.4766C16.8565 17.2674 17.0818 17.0481 17.2943 16.8185C17.3528 16.7556 17.41 16.692 17.4672 16.6277C17.6763 16.3924 17.874 16.1476 18.0602 15.8932C18.0859 15.8582 18.1166 15.8275 18.1416 15.7918C18.1449 15.7856 18.1478 15.7791 18.1502 15.7725C20.6146 12.3189 20.6146 7.68152 18.1502 4.22781ZM17.335 5.57966C18.0183 6.70503 18.4309 7.97369 18.5403 9.28573H14.2605C14.2081 8.43437 14.0742 7.59005 13.8604 6.76431C15.0694 6.5379 16.2395 6.13893 17.335 5.57966ZM11.8205 1.6235C11.8606 1.63279 11.8991 1.64564 11.9391 1.65494C12.1949 1.71497 12.4486 1.78355 12.6965 1.86928C12.7344 1.88214 12.7715 1.89717 12.8087 1.91073C13.0545 1.99647 13.2967 2.0915 13.5339 2.19654C13.5754 2.21584 13.6161 2.23727 13.6576 2.25657C13.8848 2.36471 14.1067 2.48164 14.3235 2.6074L14.4664 2.69385C14.6721 2.81961 14.8722 2.95416 15.0665 3.09755C15.1166 3.13397 15.1665 3.16901 15.2159 3.209C15.4064 3.35188 15.5888 3.50502 15.7632 3.66842C15.8089 3.70986 15.856 3.7506 15.9011 3.79347C16.084 3.96708 16.2583 4.1507 16.4269 4.34076C16.4483 4.36576 16.4712 4.38862 16.4926 4.41223C15.5252 4.87328 14.5003 5.20251 13.4454 5.39106C12.9566 4.04754 12.311 2.7664 11.522 1.57426C11.6212 1.5921 11.7227 1.6021 11.8205 1.6235ZM7.17064 9.28569C7.22699 8.51262 7.35861 7.74687 7.56362 6.99934C8.37316 7.0955 9.18768 7.14318 10.0029 7.14222C10.8189 7.14197 11.6342 7.09307 12.4443 6.99574C12.649 7.74449 12.7799 8.51145 12.8351 9.28569H7.17064ZM12.8351 10.7147C12.7788 11.4878 12.6472 12.2535 12.4422 13.0011C11.6326 12.9049 10.8181 12.8572 10.0029 12.8582C9.18693 12.8572 8.3717 12.9049 7.56145 13.0011C7.35702 12.2535 7.22615 11.4877 7.1706 10.7147H12.8351ZM10.0029 1.89218C10.816 3.04459 11.4847 4.29237 11.9942 5.60755C11.3327 5.6778 10.6681 5.71309 10.0029 5.7133C9.33843 5.7125 8.67446 5.677 8.01371 5.60683C8.52379 4.29254 9.19174 3.04518 10.0029 1.89218ZM3.57962 4.34001C3.74754 4.14994 3.92257 3.96633 4.10548 3.79271C4.15048 3.74984 4.19766 3.70911 4.24338 3.66766C4.41963 3.50715 4.60208 3.35401 4.79068 3.20824C4.83999 3.17035 4.88998 3.13678 4.94001 3.0968C5.13434 2.95391 5.33442 2.81932 5.54018 2.6931L5.68306 2.60665C5.8998 2.47996 6.12176 2.36299 6.34896 2.25582C6.39041 2.23652 6.43114 2.21509 6.47259 2.19579C6.70979 2.08861 6.95202 1.99358 7.19781 1.90998C7.23494 1.89641 7.26927 1.88138 7.30997 1.86853C7.55789 1.78564 7.81012 1.71706 8.06734 1.65418C8.10736 1.64489 8.14592 1.63204 8.18665 1.62346C8.28453 1.60202 8.38601 1.59201 8.48532 1.57414C7.69592 2.76649 7.05011 4.04788 6.56118 5.39165C5.50623 5.20309 4.4813 4.87387 3.51389 4.41281C3.53532 4.38786 3.55818 4.365 3.57962 4.34001ZM2.67078 5.57966C3.766 6.13889 4.93591 6.53786 6.14462 6.76431C5.93115 7.59009 5.7974 8.43441 5.74523 9.28573H1.46545C1.57489 7.97369 1.9875 6.70503 2.67078 5.57966ZM2.67078 14.4208C1.98746 13.2954 1.57484 12.0267 1.46545 10.7147H5.74523C5.79765 11.5661 5.93161 12.4104 6.14533 13.2361C4.93641 13.4625 3.76625 13.8615 2.67078 14.4208ZM8.18523 18.3769C8.14521 18.3676 8.10665 18.3547 8.06663 18.3455C7.81083 18.2854 7.55718 18.2168 7.30925 18.1311C7.27137 18.1183 7.23423 18.1032 7.19706 18.0897C6.95127 18.0039 6.70908 17.9089 6.47184 17.8038C6.43039 17.7845 6.38966 17.7631 6.34821 17.7438C6.12101 17.6357 5.89904 17.5188 5.68231 17.393L5.53943 17.3065C5.33366 17.1808 5.13359 17.0462 4.93925 16.9028C4.88923 16.8664 4.83924 16.8314 4.78992 16.7914C4.5994 16.6485 4.41695 16.4954 4.24263 16.332C4.19691 16.2905 4.14973 16.2498 4.10472 16.2069C3.92182 16.0333 3.74749 15.8497 3.57886 15.6596C3.55743 15.6346 3.53457 15.6118 3.51313 15.5882C4.48059 15.1271 5.50547 14.7979 6.56042 14.6093C7.04915 15.9528 7.69474 17.234 8.48381 18.4261C8.38455 18.4083 8.28311 18.3983 8.18523 18.3769ZM10.0029 18.1082C9.18977 16.9558 8.52103 15.7081 8.01158 14.3929C9.33479 14.2505 10.6695 14.2505 11.9927 14.3929L11.992 14.3936C11.482 15.7079 10.814 16.9552 10.0029 18.1082ZM16.4262 15.6604C16.2582 15.8504 16.0832 16.0341 15.9003 16.2077C15.8553 16.2505 15.8081 16.2913 15.7624 16.3327C15.5861 16.4937 15.4037 16.6469 15.2151 16.7921C15.1658 16.83 15.1158 16.8672 15.0658 16.9036C14.8714 17.0465 14.6714 17.1811 14.4656 17.3073L14.3227 17.3937C14.1064 17.52 13.8845 17.6369 13.6568 17.7446C13.6154 17.7639 13.5746 17.7853 13.5332 17.8046C13.296 17.9118 13.0538 18.0068 12.808 18.0904C12.7708 18.104 12.7365 18.119 12.6958 18.1319C12.4479 18.2148 12.1957 18.2833 11.9384 18.3462C11.8984 18.3555 11.8599 18.3684 11.8191 18.3769C11.7212 18.3984 11.6198 18.4084 11.5205 18.4263C12.3095 17.2341 12.9552 15.953 13.4438 14.6094C14.4988 14.798 15.5237 15.1272 16.4911 15.5883C16.4705 15.6125 16.4476 15.6354 16.4262 15.6604ZM17.335 14.4208C16.2398 13.8615 15.0699 13.4626 13.8612 13.2361C14.0746 12.4103 14.2084 11.566 14.2605 10.7147H18.5403C18.4309 12.0267 18.0183 13.2954 17.335 14.4208Z" fill="black"/>
</svg>
