<svg width="16" height="16" viewBox="0 0 16 16" fill="none" xmlns="http://www.w3.org/2000/svg">
<g clip-path="url(#clip0)">
<path d="M14.9016 1.09837C13.4371 -0.366125 11.0628 -0.366125 9.59831 1.09834L6.46412 4.23253C4.94928 5.74744 5.08953 8.16119 6.46412 9.53584C6.69431 9.76603 6.949 9.95372 7.21793 10.1079L7.78996 9.53584C8.16515 9.16059 8.03309 8.72193 8.02634 8.4054C7.944 8.34703 7.8639 8.28393 7.78996 8.21C7.08456 7.50465 7.05284 6.29547 7.78996 5.55834C7.89943 5.44887 10.8577 2.49066 10.9241 2.42422C11.6553 1.693 12.8445 1.693 13.5757 2.42422C14.307 3.15544 14.307 4.34465 13.5757 5.07587L11.5041 7.14753C11.564 7.479 11.9235 8.26418 11.7386 9.55943C11.7476 9.55056 11.7584 9.54484 11.7674 9.53587L14.9016 6.40169C16.3661 4.93719 16.3661 2.56287 14.9016 1.09837Z" fill="#303538"/>
<path d="M9.77867 6.22128C9.54852 5.9911 9.2938 5.80341 9.02492 5.64925L8.45289 6.22128C8.07764 6.59647 8.2097 7.03513 8.21645 7.35166C8.29886 7.41003 8.37895 7.47313 8.45289 7.54706C9.1583 8.25247 9.19002 9.4616 8.45289 10.1987C8.34317 10.3084 5.13992 13.5117 5.07583 13.5758C4.34461 14.307 3.15539 14.307 2.42417 13.5758C1.69295 12.8446 1.69295 11.6553 2.42417 10.9241L4.73877 8.60953C4.67886 8.27806 4.3193 7.49288 4.50427 6.19763C4.49523 6.2065 4.48436 6.21228 4.47536 6.22125L1.09833 9.59835C-0.366109 11.0628 -0.366109 13.4372 1.09833 14.9017C2.56283 16.3661 4.93711 16.3661 6.40161 14.9017L9.77867 11.5246C11.2654 10.0378 11.1842 7.62675 9.77867 6.22128Z" fill="#303538"/>
</g>
<defs>
<clipPath id="clip0">
<rect width="16" height="16" fill="white"/>
</clipPath>
</defs>
</svg>
