<svg width="67" height="24" fill="none" xmlns="http://www.w3.org/2000/svg"><path d="M.5 5.847h2.911v12.276H.5v4.862h15.577v-4.862h-2.941V5.847h2.941V.595H.5v5.252ZM40.057 18.123V11.67c0-4.112-3-5.613-6.723-5.613-2.64 0-4.652.72-6.393 2.732a3.3 3.3 0 0 1-.45.48V5.877h-9.604v4.892h2.191v7.354h-2.191v4.892h12.186v-4.892H26.76V13.89c0-1.801 1.351-3.122 3.152-3.122 1.41 0 2.521.69 2.521 2.221v5.103h-2.251v4.892h11.915v-4.802c0-.03-.03-.06-.03-.09h-2.01v.03Z" fill="#000"/><path d="M61.488 16.682h-6.543c0 1.8-1.32 2.641-2.791 2.641-2.822 0-3.062-2.37-3.062-4.622v-.06c0-2.25.21-4.622 3.062-4.622 2.22 0 2.61 1.921 2.67 3.752l6.574-.72c-.69-6.694-7.294-7.114-8.944-7.114h-.36c-5.433 0-10.775 2.671-10.775 8.734 0 1.29.24 2.431.69 3.422h.03v.09c1.62 3.601 5.823 5.222 10.054 5.222 3.452 0 8.284-.84 9.365-6.153l.03-.57Z" fill="#000"/><path d="M63.74 23.075a2.761 2.761 0 1 0 0-5.523 2.761 2.761 0 0 0 0 5.523Z" fill="#000"/></svg>
