<svg width="67" height="24" viewBox="0 0 67 24" fill="none" xmlns="http://www.w3.org/2000/svg">
<path d="M0.5 5.84722H3.41131V18.1228H0.5V22.985H16.077V18.1228H13.1357V5.84722H16.077V0.594849H0.5V5.84722Z" fill="white"/>
<path d="M40.0574 18.1227V11.6698C40.0574 7.55796 37.0561 6.05728 33.3344 6.05728C30.6932 6.05728 28.6823 6.7776 26.9415 8.78851C26.8214 8.93858 26.6714 9.11866 26.4913 9.26873V5.8772H16.887V10.7694H19.078V18.1227H16.887V23.0149H29.0725V18.1227H26.7614V13.8908C26.7614 12.09 28.112 10.7694 29.9128 10.7694C31.3235 10.7694 32.434 11.4597 32.434 12.9904V18.0927H30.183V22.9849H42.0983V18.1828C42.0983 18.1527 42.0683 18.1227 42.0683 18.0927H40.0574V18.1227Z" fill="white"/>
<path d="M61.4877 16.6821H55.1549H54.9448C54.9448 18.4829 53.6242 19.3233 52.1535 19.3233C49.3322 19.3233 49.0921 16.9522 49.0921 14.7012V14.6412C49.0921 12.3902 49.3022 10.0191 52.1535 10.0191C54.3745 10.0191 54.7647 11.94 54.8247 13.7708L61.3977 13.0505C60.7074 6.35745 54.1044 5.93726 52.4536 5.93726C52.2135 5.93726 52.0935 5.93726 52.0935 5.93726C46.661 5.93726 41.3186 8.60846 41.3186 14.6712C41.3186 15.9618 41.5587 17.1023 42.0089 18.0927H42.0389V18.1828C43.6597 21.7844 47.8616 23.4051 52.0935 23.4051C55.545 23.4051 60.3772 22.5648 61.4577 17.2524L61.4877 16.6821Z" fill="white"/>
<path d="M63.7395 23.075C65.2645 23.075 66.5008 21.8387 66.5008 20.3137C66.5008 18.7887 65.2645 17.5525 63.7395 17.5525C62.2145 17.5525 60.9783 18.7887 60.9783 20.3137C60.9783 21.8387 62.2145 23.075 63.7395 23.075Z" fill="white"/>
</svg>
