<?xml version="1.0" encoding="UTF-8"?>
<!DOCTYPE svg PUBLIC "-//W3C//DTD SVG 1.1//EN" "http://www.w3.org/Graphics/SVG/1.1/DTD/svg11.dtd">
<!-- Creator: CorelDRAW 2020 (64-Bit) -->
<svg xmlns="http://www.w3.org/2000/svg" xml:space="preserve" width="5.34925in" height="0.843283in" version="1.1" style="shape-rendering:geometricPrecision; text-rendering:geometricPrecision; image-rendering:optimizeQuality; fill-rule:evenodd; clip-rule:evenodd"
viewBox="0 0 6857.77 1081.09"
 xmlns:xlink="http://www.w3.org/1999/xlink"
 xmlns:xodm="http://www.corel.com/coreldraw/odm/2003">
 <defs>
  <style type="text/css">
   <![CDATA[
    .fil1 {fill:#EAA735;fill-rule:nonzero}
    .fil0 {fill:#2B364C;fill-rule:nonzero}
   ]]>
  </style>
 </defs>
 <g id="Layer_x0020_1">
  <metadata id="CorelCorpID_0Corel-Layer"/>
  <g id="_2320300610768">
   <path class="fil0" d="M1515.56 682.65c23.9,0 44.28,-3.42 61.17,-10.21 16.89,-6.79 30.58,-16.56 41.08,-29.32 10.5,-12.78 18.24,-27.9 23.17,-45.43 4.95,-17.5 7.42,-37.16 7.42,-59.01 0,-21.4 -2.16,-40.84 -6.48,-58.37 -4.33,-17.5 -11.24,-32.23 -20.7,-44.15 -9.47,-11.95 -21.72,-21.23 -36.76,-27.81 -15.05,-6.59 -33.47,-9.88 -55.28,-9.88l-72.9 0 0 284.17 59.29 0zm-151.34 -362.65l164.94 0c67.53,0 120.16,18.35 157.84,55 37.68,36.64 56.52,91.01 56.52,163.08 0,36.64 -5.25,68.77 -15.77,96.38 -10.5,27.6 -25.62,50.85 -45.4,69.8 -19.76,18.96 -43.84,33.17 -72.27,42.63 -28.41,9.48 -60.54,14.2 -96.38,14.2l-149.5 0 0 -441.09z"/>
   <path class="fil0" d="M2047.48 583.17l-53.74 -158.14 -53.13 158.14 106.88 0zm-95.14 -263.16l87.72 0 165.58 441.09 -98.86 0 -35.2 -101.93 -154.44 0 -35.23 101.93 -95.12 0 165.56 -441.09z"/>
   <polygon class="fil0" points="2327.32,581.33 2174.74,320 2277.28,320 2372.41,498.54 2470.64,320 2568.25,320 2419.37,581.33 2419.37,761.09 2327.32,761.09 "/>
   <path class="fil0" d="M2703.53 617.18c2.07,27.15 10.81,46.92 26.27,59.3 15.43,12.34 38.18,18.51 68.27,18.51 14.4,0 26.57,-1.54 36.43,-4.63 9.89,-3.09 17.92,-7.19 24.11,-12.35 6.19,-5.15 10.59,-11.2 13.27,-18.24 2.68,-7 4.03,-14.59 4.03,-22.86 0,-11.52 -4.33,-22.32 -12.98,-32.41 -8.64,-10.1 -24.51,-17.39 -47.56,-21.97l-57.46 -10.5c-22.66,-4.08 -42.63,-9.44 -59.93,-16.03 -17.29,-6.59 -31.81,-15.15 -43.55,-25.64 -11.73,-10.51 -20.69,-23.38 -26.87,-38.61 -6.18,-15.24 -9.28,-33.36 -9.28,-54.37 0,-21.02 4.22,-39.54 12.66,-55.6 8.43,-16.08 20.18,-29.44 35.22,-40.15 15.02,-10.72 33.05,-18.85 54.06,-24.42 21,-5.55 44.05,-8.33 69.19,-8.33 32.11,0 58.89,3.72 80.3,11.11 21.43,7.42 38.73,17.21 51.89,29.35 13.19,12.14 22.94,26.25 29.35,42.3 6.38,16.07 10.59,32.76 12.68,50.06l-87.11 11.1c-4.55,-24.28 -13.3,-41.76 -26.25,-52.51 -12.97,-10.67 -32.68,-16.06 -59,-16.06 -15.68,0 -28.54,1.36 -38.62,4.02 -10.1,2.69 -18.22,6.19 -24.4,10.5 -6.17,4.33 -10.49,9.38 -12.98,15.15 -2.48,5.77 -3.7,11.72 -3.7,17.91 0,16.47 4.62,28.84 13.89,37.06 9.27,8.23 25.03,14.62 47.27,19.14l60.54 11.73c47.76,9.48 82.77,24.82 105.03,46.03 22.22,21.23 33.36,51.81 33.36,91.75 0,19.38 -3.62,37.17 -10.81,53.42 -7.22,16.29 -17.92,30.49 -32.14,42.63 -14.19,12.17 -32.02,21.63 -53.43,28.42 -21.44,6.82 -46.55,10.2 -75.38,10.2 -60.14,0 -106.15,-12.86 -138.07,-38.62 -31.91,-25.74 -49.1,-64.52 -51.57,-116.42l93.27 0z"/>
   <path class="fil0" d="M3224.31 526.97c16.06,0 29.35,-1.66 39.87,-4.94 10.49,-3.29 18.81,-7.81 25,-13.61 6.19,-5.75 10.38,-12.87 12.68,-21.31 2.24,-8.42 3.4,-17.59 3.4,-27.47 0,-10.3 -1.24,-19.36 -3.73,-27.19 -2.46,-7.82 -6.78,-14.41 -12.97,-19.77 -6.19,-5.36 -14.52,-9.48 -25,-12.38 -10.52,-2.86 -23.79,-4.31 -39.84,-4.31l-65.49 0 0 130.97 66.08 0zm-156.92 -206.96l157.55 0c33.76,0 61.64,3.81 83.7,11.43 22.03,7.63 39.54,17.72 52.51,30.27 12.98,12.57 22,27.2 27.16,43.86 5.16,16.69 7.73,34.08 7.73,52.22 0,19.34 -2.57,37.9 -7.73,55.6 -5.16,17.69 -14.19,33.26 -27.16,46.62 -12.97,13.41 -30.27,24.03 -51.89,31.84 -21.65,7.8 -48.89,11.74 -81.86,11.74l-69.16 0 0 157.52 -90.84 0 0 -441.09z"/>
   <path class="fil0" d="M3630.43 518.94c14.4,0 26.35,-1.53 35.81,-4.63 9.48,-3.09 17,-7.4 22.57,-12.97 5.54,-5.58 9.32,-12.26 11.4,-20.08 2.06,-7.84 3.11,-16.47 3.11,-25.95 0,-7.81 -1.27,-15.37 -3.73,-22.56 -2.46,-7.21 -6.67,-13.58 -12.65,-19.15 -5.97,-5.55 -14.21,-9.87 -24.73,-12.97 -10.48,-3.09 -23.78,-4.64 -39.84,-4.64l-63.62 0 0 122.94 71.68 0zm-162.49 -198.93l156.3 0c34.59,0 63.08,4.01 85.57,12.05 22.44,8.03 40.02,18.54 52.81,31.51 12.75,12.96 21.62,27.39 26.57,43.23 4.95,15.86 7.38,31.42 7.38,46.65 0,28.4 -5.13,52.31 -15.41,71.66 -10.32,19.36 -27.62,35.64 -51.89,48.81l89.56 187.18 -99.49 0 -74.11 -165.56 -86.48 0 0 165.56 -90.81 0 0 -441.09z"/>
   <polygon class="fil0" points="3902.24,761.09 3994.27,761.09 3994.27,320 3902.24,320 "/>
   <polygon class="fil0" points="4115.32,320 4198.1,320 4379.75,609.11 4379.75,320 4469.3,320 4469.3,761.09 4387.13,761.09 4204.92,474.42 4204.92,761.09 4115.32,761.09 "/>
   <path class="fil0" d="M4793.65 519.56l169.25 0 0 186.54c-22.65,21.03 -49.62,37.29 -80.92,48.83 -31.27,11.5 -63.6,17.29 -97.01,17.29 -34.99,0 -65.59,-5.55 -91.69,-16.66 -26.2,-11.14 -47.9,-26.78 -65.19,-46.94 -17.3,-20.2 -30.27,-44.61 -38.92,-73.22 -8.65,-28.61 -12.95,-60.26 -12.95,-94.84 0,-35.83 4.7,-67.95 14.19,-96.38 9.48,-28.4 22.94,-52.7 40.46,-72.9 17.48,-20.15 38.83,-35.62 63.92,-46.31 25.14,-10.72 53.14,-16.07 84.06,-16.07 28.38,0 52.81,3.51 73.19,10.51 20.4,7.01 37.68,16.67 51.89,29.02 14.22,12.38 25.51,26.77 33.95,43.23 8.46,16.5 14.54,34.2 18.24,53.14l-91.43 11.73c-2.46,-11.12 -5.47,-20.89 -8.97,-29.33 -3.49,-8.43 -8.54,-15.64 -15.11,-21.63 -6.6,-5.96 -14.82,-10.5 -24.71,-13.56 -9.89,-3.09 -22.24,-4.66 -37.05,-4.66 -35.87,0 -62.65,13.4 -80.33,40.17 -17.71,26.78 -26.57,64.45 -26.57,113.04 0,49.02 8.95,86.8 26.87,113.36 17.92,26.58 47.06,39.85 87.43,39.85 19.36,0 36.11,-1.98 50.33,-5.88 14.22,-3.92 27.92,-9.98 41.11,-18.22l0 -73.51 -84.03 0 0 -76.6z"/>
   <path class="fil0" d="M5395.33 526.97c16.06,0 29.35,-1.66 39.87,-4.94 10.48,-3.29 18.84,-7.81 25.02,-13.61 6.17,-5.75 10.36,-12.87 12.65,-21.31 2.25,-8.42 3.41,-17.59 3.41,-27.47 0,-10.3 -1.24,-19.36 -3.7,-27.19 -2.49,-7.82 -6.81,-14.41 -13,-19.77 -6.17,-5.36 -14.49,-9.48 -25,-12.38 -10.52,-2.86 -23.79,-4.31 -39.84,-4.31l-65.49 0 0 130.97 66.08 0zm-156.89 -206.96l157.55 0c33.76,0 61.65,3.81 83.67,11.43 22.03,7.63 39.54,17.72 52.54,30.27 12.95,12.57 22,27.2 27.16,43.86 5.14,16.69 7.73,34.08 7.73,52.22 0,19.34 -2.59,37.9 -7.73,55.6 -5.16,17.69 -14.21,33.26 -27.16,46.62 -13,13.41 -30.27,24.03 -51.89,31.84 -21.65,7.8 -48.92,11.74 -81.9,11.74l-69.16 0 0 157.52 -90.82 0 0 -441.09z"/>
   <polygon class="fil0" points="5638.93,320 5939.79,320 5939.79,398.48 5730.98,398.48 5730.98,494.82 5927.44,494.82 5927.44,573.91 5730.98,573.91 5730.98,682.65 5952.77,682.65 5943.47,761.09 5638.93,761.09 "/>
   <polygon class="fil0" points="6049.12,320 6131.9,320 6313.52,609.11 6313.52,320 6403.09,320 6403.09,761.09 6320.9,761.09 6138.72,474.42 6138.72,761.09 6049.12,761.09 "/>
   <path class="fil0" d="M6589.67 617.18c2.05,27.15 10.81,46.92 26.27,59.3 15.43,12.34 38.16,18.51 68.24,18.51 14.44,0 26.57,-1.54 36.44,-4.63 9.91,-3.09 17.92,-7.19 24.13,-12.35 6.14,-5.15 10.6,-11.2 13.25,-18.24 2.68,-7 4.05,-14.59 4.05,-22.86 0,-11.52 -4.35,-22.32 -13,-32.41 -8.62,-10.1 -24.48,-17.39 -47.57,-21.97l-57.46 -10.5c-22.65,-4.08 -42.62,-9.44 -59.9,-16.03 -17.29,-6.59 -31.83,-15.15 -43.59,-25.64 -11.7,-10.51 -20.65,-23.38 -26.86,-38.61 -6.17,-15.24 -9.25,-33.36 -9.25,-54.37 0,-21.02 4.21,-39.54 12.65,-55.6 8.46,-16.08 20.19,-29.44 35.22,-40.15 15.03,-10.72 33.05,-18.85 54.08,-24.42 20.97,-5.55 44.05,-8.33 69.16,-8.33 32.14,0 58.89,3.72 80.33,11.11 21.41,7.42 38.71,17.21 51.87,29.35 13.18,12.14 23,26.25 29.37,42.3 6.38,16.07 10.59,32.76 12.68,50.06l-87.14 11.1c-4.54,-24.28 -13.27,-41.76 -26.27,-52.51 -12.94,-10.67 -32.65,-16.06 -58.97,-16.06 -15.65,0 -28.54,1.36 -38.62,4.02 -10.11,2.69 -18.22,6.19 -24.38,10.5 -6.22,4.33 -10.54,9.38 -13,15.15 -2.46,5.77 -3.71,11.72 -3.71,17.91 0,16.47 4.63,28.84 13.92,37.06 9.25,8.23 25,14.62 47.25,19.14l60.54 11.73c47.76,9.48 82.79,24.82 105.03,46.03 22.24,21.23 33.35,51.81 33.35,91.75 0,19.38 -3.61,37.17 -10.81,53.42 -7.19,16.29 -17.92,30.49 -32.11,42.63 -14.21,12.17 -32.06,21.63 -53.46,28.42 -21.41,6.82 -46.54,10.2 -75.35,10.2 -60.14,0 -106.16,-12.86 -138.08,-38.62 -31.92,-25.74 -49.14,-64.52 -51.59,-116.42l93.3 0z"/>
   <path class="fil1" d="M592.04 308.89l-308.9 0c-14.21,0 -25.74,11.51 -25.74,25.73 0,14.22 11.53,25.75 25.74,25.75l25.74 0c28.4,0 51.48,23.09 51.48,51.48l0 154.42c0,14.23 11.54,25.74 25.74,25.74 14.21,0 25.74,-11.51 25.74,-25.74l0 -154.42c0,-28.39 23.1,-51.48 51.49,-51.48l128.72 0c99.34,0 180.15,80.8 180.16,180.12 0,48.15 -18.74,93.41 -52.78,127.46 -34.02,34.01 -79.29,52.78 -127.43,52.78l-4.28 0c-43.73,0 -87.53,-10.34 -126.62,-29.91l-5.14 -2.56c-24.88,-12.42 -52.75,-19.02 -82.74,-19.02 -40.29,0 -78.78,19.24 -102.97,51.5l-7.72 10.3c-8.51,11.39 -6.22,27.52 5.17,36.04 4.64,3.47 10.04,5.13 15.41,5.13 7.83,0 15.57,-3.56 20.63,-10.3l7.7 -10.28c14.5,-19.35 37.6,-30.88 63.93,-30.88 19.87,0 39.78,4.69 57.56,13.59l5.12 2.55c46.23,23.1 97.97,35.33 149.66,35.33l4.28 0c61.88,0 120.08,-24.1 163.84,-67.86 43.75,-43.76 67.86,-101.95 67.84,-163.85 -0.01,-127.71 -103.92,-231.6 -231.64,-231.6z"/>
   <path class="fil1" d="M540.55 1029.63c-269.69,0 -489.07,-219.42 -489.07,-489.08 0,-269.66 219.38,-489.07 489.07,-489.07 269.66,0 489.06,219.4 489.06,489.07 0,269.66 -219.39,489.08 -489.06,489.08zm0 -1029.63c-298.07,0 -540.55,242.5 -540.55,540.55 0,298.04 242.48,540.55 540.55,540.55 298.05,0 540.55,-242.51 540.55,-540.55 0,-298.05 -242.5,-540.55 -540.55,-540.55z"/>
  </g>
 </g>
</svg>
