<svg xmlns="http://www.w3.org/2000/svg" viewBox="0 0 238 16"><path d="M8.8 14.4v-1H2V8.5h6.7v-1H2V3h6.8V2H1v12.4H8.8L8.8 14.4zM23.6 14.4L28.7 2h-1.2L23 13.2 18.5 2h-1.2l5.1 12.4H23.6L23.6 14.4zM45.2 14.4v-1h-6.8V8.5h6.7v-1h-6.7V3h6.8V2h-7.9v12.4H45.2L45.2 14.4zM63.1 14.4l-3.6-5.2c1.9-0.1 3.4-1.3 3.4-3.6 0-2.3-1.6-3.6-3.8-3.6h-4.6v12.4h1.1V9.3h2.7l3.5 5.1H63.1L63.1 14.4zM59 8.3h-3.5V3H59c1.7 0 2.8 1.1 2.8 2.7S60.7 8.3 59 8.3L59 8.3zM76.6 14.4V9.1L81.6 2h-1.3l-4.2 6.1L71.9 2h-1.3l4.9 7.1v5.3H76.6L76.6 14.4zM94.2 14.4c3.9 0 6.3-2.8 6.3-6.2 0-3.4-2.4-6.2-6.3-6.2h-4v12.4H94.2L94.2 14.4zM94.2 13.4h-2.9V3h2.9c3.3 0 5.2 2.3 5.2 5.3C99.3 11.1 97.4 13.4 94.2 13.4L94.2 13.4zM119.4 14.4L114.3 2H113l-5.1 12.4h1.2l1.2-3.1h6.6l1.2 3.1H119.4L119.4 14.4zM116.6 10.4h-5.9l2.9-7.3L116.6 10.4 116.6 10.4zM131.2 14.4V9.1l4.9-7.1h-1.3l-4.2 6.1L126.4 2h-1.3l4.9 7.1v5.3H131.2L131.2 14.4zM147.7 14.4v-4.2h3c2.8 0 4.3-1.9 4.3-4.1 0-2.3-1.5-4.1-4.3-4.1h-6.2v12.4H147.7L147.7 14.4zM150.3 7.4h-2.5V4.8h2.5c0.9 0 1.5 0.5 1.5 1.3C151.8 7 151.1 7.4 150.3 7.4L150.3 7.4zM169.2 14.6c3.8 0 6.6-2.6 6.6-6.4s-2.8-6.4-6.6-6.4 -6.7 2.6-6.7 6.4S165.4 14.6 169.2 14.6L169.2 14.6zM169.2 11.8c-2.1 0-3.4-1.6-3.4-3.6 0-2 1.3-3.6 3.4-3.6 2.1 0 3.4 1.6 3.4 3.6C172.6 10.2 171.3 11.8 169.2 11.8L169.2 11.8zM196.7 14.4L200.3 2h-3.6l-1.9 8.3L192.6 2h-2.5l-2.1 8.3L186.2 2h-3.6l3.6 12.4h3.4l1.9-7.8 1.9 7.8H196.7L196.7 14.4zM217 14.4v-2.8h-5.9V9.5h5.8V6.7h-5.8V4.8h5.9V2h-9.1v12.4H217L217 14.4zM236.4 14.4l-2.5-4.6c1.2-0.4 2.5-1.6 2.5-3.7 0-2.3-1.6-4.1-4.3-4.1h-6.2v12.4h3.2v-4.2h1.6l2.1 4.2H236.4L236.4 14.4zM231.5 7.4H229V4.8h2.5c0.9 0 1.5 0.5 1.5 1.3C233.1 7 232.4 7.4 231.5 7.4L231.5 7.4z"/></svg>