<svg xmlns="http://www.w3.org/2000/svg" width="547.334" height="547.334" viewBox="0 0 547.33397 547.33399" enable-background="new 0 0 701.7 721.206"><g transform="translate(-85.042 -114.846)"><circle cx="358.709" cy="388.513" r="273.667" fill="#0ca089"/><ellipse cx="358.709" cy="596.932" rx="144.593" ry="23.438" fill="#0c7c66"/></g><g><g><path d="M398.852 115.04c.84 4.872 1.728 9.734 2.5 14.615.704 4.438 1.083 8.913 1.494 13.39 1.553 16.918 1.045 33.86.69 50.795-.174 8.233-.893 16.456-1.376 24.682-.325 5.535-.71 11.066-.994 16.603-.386 7.485-.317 17.253-.664 24.74-.743.1-2.087 1.025-2.833 1.056-8.7.362-17.47.725-26.168 1.113-11.395.51-22.437 1.866-33.833 2.333-13.053.535-25.113.865-38.168 1.333-1.05.037-152.518 7.974-154.167 7.968-.442-9.3-1.077-23.763-1.623-33.058-1.19-20.272-.772-40.555-.376-60.83.234-12.006.964-24.008 1.725-35.996.553-8.684 1.527-17.342 2.3-26.012.12-1.346.168-2.7.25-4.05 1.346.08 2.702.082 4.037.252 3.78.48 7.545.17 11.2-.642 23.713-5.265 35.053-29.978 27.007-50.18-.554-1.392-1.08-2.794-1.62-4.192 6.395-2.127 12.712-4.472 19.264-6.13 9.018-2.283 18.136-3.95 27.35-5.192 8.632-1.164 17.3-1.536 25.987-1.948 9.166-.435 18.306-.133 27.412.495 15.12 1.042 30.04 3.516 44.667 7.62 6.07 1.704 11.975 3.863 17.915 5.935-.558 1.052-1.103 2.113-1.674 3.16-6.155 11.28-6.76 22.838-1.394 34.524 7.855 17.11 26.22 23.71 39.964 21.048 3.87-.75 7.444-2.207 11.126-3.43zM288.86 234.71c1.328-.807 2.405-1.342 3.347-2.055 2.866-2.17 3.857-5.38 2.815-8.8-1.04-3.413-3.577-5.31-7.352-5.552-2.14-.138-4.19.24-6.167 1-.97.374-1.92.854-2.796 1.417-1.344.865-1.635 2.238-.865 3.49.665 1.083 1.72 1.366 3.105.78.69-.293 1.314-.757 2.02-.983 1.275-.41 2.572-.86 3.892-.997 1.86-.194 3.596 1.27 3.905 3.017.19 1.076-.707 2.353-2.184 3.094-1.793.9-3.733 1.064-5.693 1.094-1.047.016-2.104-.11-3.142-.01-1.182.114-1.807 1-2.14 2.047-.29.907.354 1.96 1.49 2.457.82.36 1.733.525 2.526.932 2.504 1.283 4.32 3.204 5.106 5.965.422 1.48-.423 2.665-1.956 2.898-1.905.29-3.548-.304-5.047-1.424-.956-.715-1.844-1.55-2.88-2.118-.83-.456-1.76-.2-2.457.52-.682.706-.915 1.572-.54 2.474.22.53.6 1.044 1.028 1.43 2.398 2.164 5.262 3.45 8.38 4.122 5.076 1.092 8.574-1.846 8.536-7.02-.01-1.39-.344-2.686-.893-3.918-.548-1.226-1.25-2.384-2.037-3.86z" fill="#eee9ca"/><path d="M179.167 430.734c3.176-1.04 6.524-.693 9.78-1.16 5.034-.725 10.157-.804 15.234-1.24 5.523-.476 11.03-1.12 16.556-1.56 6.874-.547 13.76-.962 20.64-1.435-.606 5.793.595 11.346 2.28 16.83.75 2.438 1.455 4.895 2.328 7.29 1.757 4.815 2.758 9.802 3.165 14.874.523 6.533-1.948 11.845-7.606 15.27-10.228 6.19-22.26 6.92-33.003-.806-4.446-3.198-7.996-7.228-11.272-11.563-6.66-8.813-11.098-18.795-15.288-28.907-1.032-2.49-1.88-5.06-2.813-7.594z" fill="#eee9ca"/><path d="M324.025 418.07c.768-.544 1.65-.67 2.558-.707 3.29-.133 6.56-.502 9.838-.814 8.937-.853 17.904-1.374 26.844-2.187 8.345-.76 16.678-1.64 25.058-1.94-1.96 15.053-4.782 29.926-9.742 44.315-2.207 6.402-4.98 12.553-8.987 18.086-1.78 2.457-3.868 4.602-6.21 6.492-4.333 3.493-9.265 4.765-14.764 3.78-4.472-.8-8.737-2.198-12.674-4.483-6.32-3.668-9.872-8.994-9.997-16.483-.087-5.14.34-10.183 1.62-15.172.967-3.778 1.748-7.604 2.63-11.404.616-2.656.707-5.354.688-8.06-.027-4.007-1.482-7.297-4.846-9.648-.73-.51-1.347-1.18-2.017-1.777z" fill="#eee9ca"/><path d="M142.39 269.31c1.737.008 3.497.198 5.208-.013 5.044-.62 10.11-.553 15.17-.73 9.646-.336 19.307-.5 28.932-1.17 6.64-.465 13.28-.538 19.918-.817 16.282-.685 32.573-1.213 48.844-2.1 6.166-.338 12.333-.45 18.495-.75 7.267-.354 14.53-.794 21.796-1.192 1.107-.06 2.214-.104 3.322-.144 13.76-.494 27.524-.93 41.28-1.494 12.014-.492 24.02-1.153 36.032-1.69 9.168-.408 18.34-.733 27.51-1.113.786-.033 1.567-.198 2.35-.303 2.044.388 4.09.19 6.125-.04 4.396-.5-.017-.714 4.396-.5-.768.794-81.45 77.438-91.088 85.652-12.408 10.576-24.834 21.13-37.26 31.685-1.205 1.025-2.457 1.996-3.696 2.98-.695.552-1.45.545-2.215.155-3.65-1.862-6.804-4.63-10.794-5.865-2.81-3.12-6.64-4.79-10.1-6.943-24.052-14.962-48.175-29.812-72.28-44.69-22.222-13.72-44.47-27.397-66.657-41.174-4.297-2.668-8.797-5.034-12.773-8.205 1.1-.105.707-.8 1.81-.85 7.59-.35 16.675-.128 24.265-.47.47-.024.938-.143 1.407-.217z" fill="#e5c730"/><path d="M175.19 431.895c-8.38.654-16.762 1.31-25.142 1.963-.04-1.237.822-1.933 1.608-2.67 3.152-2.954 6.326-5.885 9.458-8.86 11.747-11.162 23.494-22.323 35.217-33.51 9.716-9.27 19.386-18.586 29.098-27.86 3.57-3.408 7.188-6.77 10.813-10.12 1.873-1.732 2.115-1.73 4.435-.412.804.457 1.58.964 2.357 1.468 5.422 3.52 10.907 6.94 16.31 10.494 7.112 4.678 14.325 9.262 21.913 13.192 2.15 1.113 2.123 1.23 4.024-.387 8.81-7.502 17.61-15.02 26.417-22.528 3.053-2.602 6.07-5.25 9.195-7.765 2.026-1.63 2.466-1.57 4.52-.26.91.58 1.788 1.212 2.667 1.84 6.027 4.304 12.05 8.613 18.078 12.92 4.27 3.05 8.424 6.276 12.842 9.092 4.543 2.896 8.416 6.623 12.77 9.752 2.01 1.446 4.26 2.357 6.25 3.8 8.744 6.342 17.62 12.5 26.413 18.774 4.517 3.222 8.963 6.544 13.44 9.82-8.173.722-16.348 1.434-24.52 2.176-1.047.095-2.08.35-3.12.533-8.615.31-17.182 1.215-25.762 1.995-9.19.836-18.41 1.37-27.598 2.248-3.37.32-6.73.7-10.115.837-.933.037-1.84.167-2.63.725-3.85-.026-7.675.17-11.503.686-3.805.513-7.65.756-11.48 1.062-5.365.43-10.74.76-16.102 1.218-5.205.445-10.4 1.026-15.603 1.495-4.595.414-9.194.76-13.792 1.125-4.907.388-9.816.752-14.722 1.157-.6.05-1.184.296-1.776.452-7.075.487-14.154.913-21.222 1.475-5.68.452-11.343 1.114-17.02 1.602-5.22.45-10.488.53-15.663 1.275-3.35.483-6.79.125-10.056 1.195z" fill="#e5c730"/><path d="M122.224 310.685c-2.813-13.28-7.808-39.378-7.852-40.153 1.5.85 13.89 7.05 19.09 10.26 5.068 3.127 10.12 6.284 15.24 9.325 5.207 3.093 9.828 7.124 15.417 9.6.14.06.257.177.39.26 7.85 4.884 15.688 9.79 23.557 14.644 5.2 3.208 10.43 6.37 15.687 9.486 1.6.95 3.242 1.633 4.476 3.258.973 1.28 2.647 2.284 4.21 2.797 1.84.606 3.375 1.603 4.965 2.582 4.404 2.71 8.85 5.358 13.187 8.17 2.868 1.86 6.038 3.288 8.517 5.553-.05 1.064-.72 1.528-1.265 2.046-1.816 1.728-3.676 3.41-5.494 5.135-13.413 12.732-26.836 25.454-40.226 38.21-10.782 10.273-21.508 20.603-32.286 30.878-3.515 3.35-7.117 6.61-10.678 9.912-1.62-3.093-1.788-6.576-2.553-9.884-2.346-10.15-4.49-20.347-6.697-30.53-.165-.76-16.782-77.276-17.686-81.545z" fill="#e5c730"/><path d="M398.852 115.04c-3.682 1.225-7.257 2.68-11.127 3.43-13.745 2.664-32.11-3.937-39.964-21.047-5.364-11.687-4.76-23.245 1.395-34.524.57-1.047 1.116-2.108 1.673-3.16 1.653-1.734 3.256-3.52 4.967-5.195 13.58-13.292 36.162-14.344 51.046-.568 9.083 8.405 13.144 18.967 12.01 31.202-1.018 11.004-6.264 19.917-15.173 26.567-1.56 1.164-3.214 2.2-4.825 3.294z" fill="#231f1b"/><path d="M188.234 58.96c.54 1.397 1.065 2.8 1.62 4.192 8.045 20.202-3.295 44.915-27.007 50.18-3.655.812-7.422 1.122-11.2.642-1.336-.17-2.692-.172-4.038-.25-.986-.345-1.964-.713-2.958-1.03-14.992-4.777-24.25-14.987-26.614-30.396-3.15-20.553 9.864-36.793 26.702-41.524 15.44-4.338 31.434 1.123 40.91 14.54.86 1.217 1.723 2.43 2.584 3.646z" fill="#231f1b"/><path d="M313.668 343.667c3.133-2.802 104.597-79.41 108.652-82.747-.1 5.087-1.84 103.875-1.99 106.56-.257 4.618-.478 28.218-.573 35.387-.02 1.485.16 2.995-.424 4.425-.904-.526-2.898.602-3.748 0-4.78-3.383-11.474-7.622-16.25-11.01" fill="#e5c730"/><path d="M420.477 359.44c-3.43 1.077-6.866 2.046-10.456 2.565-8.567 1.237-16.71-.137-24.59-3.498-3.196-1.364-6.095-3.243-8.65-5.59-6.772-6.216-9.552-13.946-8.59-23.063.377-3.587 2.006-6.553 4.432-9.13 2.387-2.535 5.22-4.484 8.246-6.176 4.196-2.346 8.617-4.196 13.052-6.022 4.432-1.826 8.882-3.612 13.262-5.555 2.183-.967 4.27-2.178 6.325-3.404 2.338-1.393 4.322-3.2 5.906-5.45.772-1.098 1.724-2.07 2.596-3.097 4.298-2.553 8.102-1.294 11.516 1.7 4.835 4.237 8.354 9.406 10.03 15.665 2.924 10.924 2.57 21.636-2.423 31.974-3.715 7.69-9.458 13.4-17.024 17.304-1.198.616-2.42 1.184-3.633 1.776z" fill="#231f1b"/><path d="M125.983 326.31c2.387 1.91 5.19 3 8.05 3.887 5.868 1.82 11.768 3.536 17.668 5.247 4.18 1.212 8.318 2.53 12.29 4.327 2.884 1.307 5.612 2.865 7.988 4.98 3.155 2.806 4.954 6.282 5.47 10.515 1.448 11.84-3.26 20.734-12.936 27.225-6.368 4.272-13.525 6.344-21.104 7.085-1.044.102-2.09.184-3.135.276-4.037-.294-8.05-.675-11.978-1.78-14.386-4.044-23.394-13.494-27.586-27.625-2.076-6.995-2.466-14.197-.954-21.37 1.226-5.816 3.828-11.028 7.875-15.445.707-.77 1.483-1.5 2.323-2.118 4.08-2.995 7.698-2.738 11.292.784 1.487 1.453 2.645 3.282 4.738 4.015z" fill="#231f1b"/><path d="M422.32 260.92c-4.055 3.338-8.15 6.63-12.156 10.024-8.364 7.085-16.662 14.25-25.027 21.334-4.568 3.87-9.152 7.712-13.662 11.653-11.06 9.665-22.375 19.036-33.566 28.55-3.204 2.72-6.356 5.505-9.49 8.307-.872.78-.837 1.565.107 2.268 2.768 2.062 5.578 4.07 8.394 6.067 21.8 15.464 43.606 30.918 65.405 46.383 4.776 3.388 9.52 6.823 14.3 10.206.85.603 1.803 1.058 2.708 1.584.138.573.424 1.152.39 1.71-.09 1.38-.588 1.947-1.844 2.09-.88.1-1.78-.013-2.673-.032-4.356-3.188-8.68-6.42-13.074-9.552-8.553-6.1-17.185-12.092-25.69-18.26-1.936-1.403-4.124-2.29-6.08-3.696-4.233-3.044-8-6.67-12.418-9.485-4.297-2.74-8.338-5.88-12.49-8.845-5.862-4.188-11.72-8.38-17.584-12.565-.854-.61-1.708-1.226-2.593-1.79-1.998-1.274-2.426-1.33-4.397.254-3.04 2.445-5.973 5.02-8.943 7.552-8.566 7.302-17.123 14.615-25.694 21.91-1.85 1.575-1.822 1.46-3.913.377-7.38-3.822-14.395-8.28-21.313-12.83-5.255-3.456-10.59-6.784-15.863-10.207-.755-.49-1.51-.983-2.293-1.428-2.255-1.282-2.49-1.284-4.31.4-3.527 3.26-7.045 6.53-10.518 9.845-9.446 9.02-18.852 18.08-28.3 27.096-11.402 10.88-22.827 21.735-34.252 32.59-3.046 2.894-6.133 5.745-9.2 8.618-.764.717-1.602 1.394-1.563 2.597-.857.062-1.714.123-2.57.186-2.327.172-3.08-.383-2.742-3.066 3.41-3.158 6.86-6.28 10.224-9.487 10.32-9.838 20.59-19.73 30.913-29.564 12.82-12.215 25.673-24.396 38.517-36.587 1.74-1.652 3.52-3.262 5.26-4.915.52-.495 1.164-.94 1.21-1.958-2.374-2.168-5.41-3.536-8.155-5.316-4.154-2.693-8.41-5.228-12.626-7.823-1.523-.937-2.992-1.892-4.755-2.47-1.497-.493-3.1-1.453-4.03-2.68-1.182-1.556-2.753-2.212-4.286-3.12-5.034-2.982-10.04-6.01-15.02-9.082-7.536-4.646-15.04-9.344-22.557-14.02-.127-.08-.24-.19-.374-.25-5.353-2.37-9.778-6.23-14.764-9.19-4.902-2.912-9.738-5.935-14.59-8.93-4.98-3.074-9.936-6.186-14.92-9.254-1.402-.864-2.863-1.632-4.3-2.447-.247-.708-.565-1.397-.723-2.12-.173-.793 0-1.57.99-1.624 1.187-.064 3.895.5 5.08.523 3.77 3.008 6.524 4.774 10.6 7.305 21.047 13.07 42.154 26.045 63.236 39.06 22.866 14.116 45.75 28.204 68.568 42.398 3.28 2.04 6.916 3.628 9.58 6.586 3.786 1.17 6.78 3.796 10.24 5.563.726.37 1.442.377 2.1-.147 1.177-.934 2.364-1.855 3.508-2.826 11.788-10.013 23.576-20.026 35.347-30.06 9.143-7.792 18.248-15.63 27.393-23.418 11.203-9.54 22.438-19.046 33.648-28.58 10.525-8.95 21.04-17.91 31.546-26.883.792-.678 1.462-1.498 2.19-2.252.738-.087 1.474-.253 2.21-.246 1.553.013 1.867.297 1.913 1.78.022.724-.17 1.457-.263 2.188z" fill="#eee9ca"/><path d="M209.878 231.28c-18.897.547-38.153-13.306-42.114-34.596-1.26-6.773-.996-13.423.893-20.048.448-1.57 3.227-8.132 3.91-9.27 7.246-12.112 17.816-19.135 31.806-21.19 18.79-2.757 41.15 8.647 47.036 32.444 5.4 21.835-7.552 45.63-31.49 51.59-3.38.842-6.802 1.15-10.042 1.07z" fill="#231f1b"/><path d="M342.982 221.535c-20.31.77-40.482-16.96-40.513-40.63-.028-20.724 17.643-40.864 40.78-40.553 21.566.29 40.46 16.62 40.532 40.81.07 24.176-20.023 40.908-40.8 40.373z" fill="#8f8e83"/><path d="M288.86 234.71c.788 1.476 1.49 2.634 2.037 3.86.55 1.232.883 2.53.893 3.918.038 5.174-3.46 8.112-8.535 7.02-3.12-.67-5.983-1.957-8.38-4.12-.43-.388-.808-.9-1.03-1.43-.374-.903-.14-1.768.54-2.475.697-.72 1.627-.976 2.46-.52 1.035.567 1.922 1.403 2.878 2.117 1.5 1.12 3.142 1.713 5.047 1.424 1.533-.233 2.378-1.417 1.956-2.898-.786-2.76-2.602-4.682-5.105-5.966-.792-.407-1.705-.572-2.526-.932-1.135-.497-1.78-1.55-1.49-2.456.334-1.046.96-1.934 2.14-2.047 1.038-.1 2.095.026 3.143.01 1.96-.03 3.9-.193 5.694-1.093 1.48-.742 2.375-2.018 2.185-3.094-.308-1.748-2.044-3.21-3.906-3.017-1.32.138-2.618.59-3.894.998-.705.226-1.33.69-2.02.982-1.383.588-2.44.305-3.104-.778-.77-1.253-.478-2.626.865-3.49.875-.564 1.824-1.045 2.796-1.418 1.976-.76 4.028-1.138 6.167-1 3.775.243 6.312 2.14 7.352 5.55 1.042 3.422.05 6.63-2.815 8.802-.942.713-2.02 1.247-3.347 2.053z" fill="#231f1b"/><path d="M228.8 209.756c.223 6.747-5.78 14.263-14.503 14.09-7.94-.16-14.304-6.59-14.164-14.493.14-7.924 6.588-14.175 14.577-14.085 9.3.105 14.507 8.138 14.09 14.488zm-6.016-.377c-.08-4.524-3.905-8.22-8.42-8.134-4.504.085-8.217 3.927-8.147 8.43.07 4.554 3.91 8.25 8.415 8.106 4.644-.15 8.23-3.848 8.152-8.403z" fill="#fff"/><path d="M343.115 209.265c-.208 3.768-3.71 7.092-7.395 7.02-4.01-.08-7.123-3.567-6.927-7.762.185-3.952 3.366-6.75 7.495-6.597 3.95.148 7.04 3.472 6.827 7.34z" fill="#231f1b"/><path d="M222.784 209.38c.08 4.554-3.508 8.25-8.152 8.4-4.506.146-8.345-3.55-8.415-8.104-.07-4.503 3.644-8.345 8.148-8.43 4.514-.085 8.34 3.61 8.42 8.133z" fill="#231f1b"/><path d="M339.335 263.032" fill="#eee9ca"/></g></g></svg>